<svg width="16" height="18" viewBox="0 0 16 18" fill="none" xmlns="http://www.w3.org/2000/svg">
<path fill-rule="evenodd" clip-rule="evenodd" d="M15.3281 12.7453C14.8945 11.9984 14.25 9.88516 14.25 7.125C14.25 3.67322 11.4518 0.875 8 0.875C4.54822 0.875 1.75 3.67322 1.75 7.125C1.75 9.88594 1.10469 11.9984 0.671094 12.7453C0.445722 13.1318 0.444082 13.6092 0.666796 13.9973C0.889509 14.3853 1.30261 14.6247 1.75 14.625H4.93828C5.23556 16.0796 6.51529 17.1243 8 17.1243C9.48471 17.1243 10.7644 16.0796 11.0617 14.625H14.25C14.6972 14.6244 15.1101 14.3849 15.3326 13.9969C15.5551 13.609 15.5534 13.1317 15.3281 12.7453V12.7453ZM8 15.875C7.20562 15.8748 6.49761 15.3739 6.23281 14.625H9.76719C9.50239 15.3739 8.79438 15.8748 8 15.875V15.875ZM1.75 13.375C2.35156 12.3406 3 9.94375 3 7.125C3 4.36358 5.23858 2.125 8 2.125C10.7614 2.125 13 4.36358 13 7.125C13 9.94141 13.6469 12.3383 14.25 13.375H1.75Z" fill="#121417"/>
</svg>
