<svg width="36" height="36" viewBox="0 0 36 36" fill="none" xmlns="http://www.w3.org/2000/svg">
<g clip-path="url(#clip0_492_976)">
<path d="M-40.112 5.096C-42.288 8.616 -43.664 12.168 -44.24 15.752C-43.408 15.944 -42.8 16.168 -42.416 16.424C-41.84 16.744 -41.36 17.096 -40.976 17.48C-40.592 17.864 -40.272 18.28 -40.016 18.728C-39.76 19.432 -39.632 20.264 -39.632 21.224C-39.632 22.696 -40.048 23.976 -40.88 25.064C-41.648 26.088 -42.672 26.6 -43.952 26.6C-45.488 26.6 -46.832 25.832 -47.984 24.296C-48.752 22.952 -49.136 21.32 -49.136 19.4C-49.136 18.888 -49.104 18.408 -49.04 17.96C-48.976 17.512 -48.88 17.032 -48.752 16.52C-48.624 15.88 -48.496 15.4 -48.368 15.08C-47.984 13.928 -47.536 12.776 -47.024 11.624C-46.448 10.472 -45.808 9.352 -45.104 8.264C-44.528 7.368 -43.952 6.568 -43.376 5.86399C-42.736 5.096 -42.064 4.36 -41.36 3.65599C-41.104 3.464 -40.88 3.304 -40.688 3.17599C-40.432 2.984 -40.176 2.792 -39.92 2.6C-39.856 2.6 -39.824 2.6 -39.824 2.6C-39.76 2.536 -39.696 2.504 -39.632 2.504C-39.12 2.504 -38.864 2.792 -38.864 3.368C-38.864 3.496 -38.896 3.592 -38.96 3.65599L-40.112 5.096ZM-52.304 3.65599C-52.496 3.91199 -52.688 4.168 -52.88 4.424C-53.072 4.616 -53.232 4.84 -53.36 5.096C-55.664 8.488 -57.104 12.04 -57.68 15.752C-56.912 15.944 -56.272 16.168 -55.76 16.424C-54.672 17 -53.904 17.768 -53.456 18.728C-53.328 19.112 -53.2 19.528 -53.072 19.976C-52.944 20.36 -52.88 20.776 -52.88 21.224C-52.88 22.696 -53.328 23.976 -54.224 25.064C-55.056 26.088 -56.08 26.6 -57.296 26.6C-59.024 26.6 -60.336 25.832 -61.232 24.296C-62 22.952 -62.384 21.32 -62.384 19.4C-62.384 18.44 -62.288 17.48 -62.096 16.52C-61.968 15.88 -61.84 15.4 -61.712 15.08C-61.328 13.928 -60.88 12.776 -60.368 11.624C-59.792 10.472 -59.152 9.352 -58.448 8.264C-57.424 6.536 -56.176 5 -54.704 3.65599C-54.448 3.464 -54.224 3.304 -54.032 3.17599C-53.776 2.984 -53.52 2.792 -53.264 2.6C-53.2 2.6 -53.168 2.6 -53.168 2.6C-53.168 2.536 -53.136 2.504 -53.072 2.504C-52.88 2.504 -52.688 2.6 -52.496 2.79199C-52.304 2.92 -52.208 3.112 -52.208 3.368C-52.208 3.496 -52.24 3.592 -52.304 3.65599ZM28.9345 16.136C28.1665 18.632 27.0785 21 25.6705 23.24C25.0945 24.136 24.4865 24.968 23.8465 25.736C23.2065 26.504 22.5345 27.208 21.8305 27.848C21.5745 28.104 21.3185 28.328 21.0625 28.52C20.8705 28.648 20.6465 28.808 20.3905 29H20.1985C20.0065 29 19.8145 28.936 19.6225 28.808C19.4305 28.616 19.3345 28.424 19.3345 28.232C19.3345 28.104 19.3665 28.008 19.4305 27.944L20.5825 26.504C22.8225 23.112 24.2305 19.528 24.8065 15.752C24.4225 15.624 24.0705 15.528 23.7505 15.464C23.4945 15.336 23.2385 15.208 22.9825 15.08C21.7665 14.504 20.9665 13.768 20.5825 12.872C20.2625 12.04 20.1025 11.176 20.1025 10.28C20.1025 8.80799 20.5185 7.56 21.3505 6.536C22.1825 5.448 23.2065 4.904 24.4225 4.904C26.0865 4.904 27.4305 5.704 28.4545 7.304C29.1585 8.584 29.5425 10.024 29.6065 11.624C29.6065 11.944 29.5745 12.232 29.5105 12.488C29.5105 12.68 29.5105 12.936 29.5105 13.256C29.3825 14.216 29.1905 15.176 28.9345 16.136ZM15.4945 16.136C14.7265 18.632 13.6385 21 12.2305 23.24C11.7185 24.136 11.1425 24.968 10.5025 25.736C9.8625 26.504 9.1905 27.208 8.4865 27.848C8.2305 28.104 7.9745 28.328 7.7185 28.52C7.5265 28.648 7.3025 28.808 7.0465 29H6.8545C6.7265 29 6.5665 28.936 6.3745 28.808C6.1825 28.68 6.0865 28.488 6.0865 28.232C6.0865 28.104 6.1185 28.008 6.1825 27.944L7.3345 26.504C9.5105 23.048 10.8865 19.464 11.4625 15.752C11.0785 15.624 10.7265 15.528 10.4065 15.464C10.1505 15.336 9.8625 15.208 9.5425 15.08C8.5185 14.504 7.7505 13.768 7.2385 12.872C6.9825 12.168 6.8545 11.304 6.8545 10.28C6.8545 8.80799 7.2385 7.56 8.0065 6.536C8.8385 5.448 9.8625 4.904 11.0785 4.904C12.8705 4.904 14.1825 5.704 15.0145 7.304C15.8465 8.52 16.2625 9.96 16.2625 11.624C16.2625 11.944 16.2625 12.232 16.2625 12.488C16.2625 12.68 16.2305 12.936 16.1665 13.256C16.1025 13.768 16.0065 14.248 15.8785 14.696C15.7505 15.144 15.6225 15.624 15.4945 16.136Z" fill="black"/>
</g>
<defs>
<clipPath id="clip0_492_976">
<rect width="36" height="36" fill="white"/>
</clipPath>
</defs>
</svg>
