<svg width="12" height="12" viewBox="0 0 12 12" fill="none" xmlns="http://www.w3.org/2000/svg">
<g clip-path="url(#clip0_245_927)">
<path d="M9.6162 5.41407L9.88104 5.14923L9.08651 4.3547L7.63104 2.89923L6.83651 2.1047L6.57167 2.36954L6.04198 2.89923L1.37323 7.56798C1.12948 7.81173 0.951356 8.11407 0.852918 8.44454L0.0232306 11.2664C-0.0353632 11.4633 0.0185431 11.6766 0.166199 11.8219C0.313856 11.9672 0.524793 12.0211 0.721668 11.9649L3.5412 11.1352C3.87167 11.0367 4.17401 10.8586 4.41776 10.6149L9.08651 5.94611L9.6162 5.41407ZM3.74979 9.36095L3.53651 9.89298C3.44276 9.96564 3.33729 10.0195 3.22479 10.0547L1.39198 10.5938L1.93104 8.76329C1.96386 8.64845 2.02011 8.54298 2.09276 8.45157L2.62479 8.23829V8.98829C2.62479 9.19454 2.79354 9.36329 2.99979 9.36329H3.74979V9.36095ZM8.50058 0.438293L8.16307 0.778137L7.63339 1.30782L7.3662 1.57267L8.16073 2.3672L9.6162 3.82267L10.4107 4.6172L10.6756 4.35236L11.2053 3.82267L11.5451 3.48282C12.131 2.89689 12.131 1.94767 11.5451 1.36173L10.624 0.438293C10.0381 -0.147644 9.08886 -0.147644 8.50292 0.438293H8.50058ZM7.38964 4.37579L4.01464 7.75079C3.86932 7.89611 3.63026 7.89611 3.48495 7.75079C3.33964 7.60548 3.33964 7.36642 3.48495 7.22111L6.85995 3.84611C7.00526 3.70079 7.24432 3.70079 7.38964 3.84611C7.53495 3.99142 7.53495 4.23048 7.38964 4.37579Z" fill="white"/>
</g>
<defs>
<clipPath id="clip0_245_927">
<rect width="12" height="12" fill="white"/>
</clipPath>
</defs>
</svg>
