<svg width="4" height="16" viewBox="0 0 4 16" fill="none" xmlns="http://www.w3.org/2000/svg">
<path d="M2 11.25C1.53587 11.25 1.09075 11.4344 0.762563 11.7626C0.434374 12.0908 0.25 12.5359 0.25 13C0.25 13.4641 0.434374 13.9092 0.762563 14.2374C1.09075 14.5656 1.53587 14.75 2 14.75C2.46413 14.75 2.90925 14.5656 3.23744 14.2374C3.56563 13.9092 3.75 13.4641 3.75 13C3.75 12.5359 3.56563 12.0908 3.23744 11.7626C2.90925 11.4344 2.46413 11.25 2 11.25ZM2 6.25C1.53587 6.25 1.09075 6.43437 0.762563 6.76256C0.434374 7.09075 0.25 7.53587 0.25 8C0.25 8.46413 0.434374 8.90925 0.762563 9.23744C1.09075 9.56563 1.53587 9.75 2 9.75C2.46413 9.75 2.90925 9.56563 3.23744 9.23744C3.56563 8.90925 3.75 8.46413 3.75 8C3.75 7.53587 3.56563 7.09075 3.23744 6.76256C2.90925 6.43437 2.46413 6.25 2 6.25ZM3.75 3C3.75 2.53587 3.56563 2.09075 3.23744 1.76256C2.90925 1.43437 2.46413 1.25 2 1.25C1.53587 1.25 1.09075 1.43437 0.762563 1.76256C0.434374 2.09075 0.25 2.53587 0.25 3C0.25 3.46413 0.434374 3.90925 0.762563 4.23744C1.09075 4.56563 1.53587 4.75 2 4.75C2.46413 4.75 2.90925 4.56563 3.23744 4.23744C3.56563 3.90925 3.75 3.46413 3.75 3Z" fill="#121417"/>
</svg>
