<svg width="20" height="20" viewBox="0 0 20 20" fill="none" xmlns="http://www.w3.org/2000/svg">
<g clip-path="url(#clip0_160_5010)">
<path d="M18.125 10C18.125 7.84512 17.269 5.77849 15.7452 4.25476C14.2215 2.73102 12.1549 1.875 10 1.875C7.84512 1.875 5.77849 2.73102 4.25476 4.25476C2.73102 5.77849 1.875 7.84512 1.875 10C1.875 12.1549 2.73102 14.2215 4.25476 15.7452C5.77849 17.269 7.84512 18.125 10 18.125C12.1549 18.125 14.2215 17.269 15.7452 15.7452C17.269 14.2215 18.125 12.1549 18.125 10ZM0 10C0 7.34784 1.05357 4.8043 2.92893 2.92893C4.8043 1.05357 7.34784 0 10 0C12.6522 0 15.1957 1.05357 17.0711 2.92893C18.9464 4.8043 20 7.34784 20 10C20 12.6522 18.9464 15.1957 17.0711 17.0711C15.1957 18.9464 12.6522 20 10 20C7.34784 20 4.8043 18.9464 2.92893 17.0711C1.05357 15.1957 0 12.6522 0 10ZM6.63281 6.45703C6.94141 5.58594 7.76953 5 8.69531 5H10.9727C12.3359 5 13.4375 6.10547 13.4375 7.46484C13.4375 8.34766 12.9648 9.16406 12.1992 9.60547L10.9375 10.3281C10.9297 10.8359 10.5117 11.25 10 11.25C9.48047 11.25 9.0625 10.832 9.0625 10.3125V9.78516C9.0625 9.44922 9.24219 9.14062 9.53516 8.97266L11.2656 7.98047C11.4492 7.875 11.5625 7.67969 11.5625 7.46875C11.5625 7.14062 11.2969 6.87891 10.9727 6.87891H8.69531C8.5625 6.87891 8.44531 6.96094 8.40234 7.08594L8.38672 7.13281C8.21484 7.62109 7.67578 7.875 7.19141 7.70312C6.70703 7.53125 6.44922 6.99219 6.62109 6.50781L6.63672 6.46094L6.63281 6.45703ZM8.75 13.75C8.75 13.4185 8.8817 13.1005 9.11612 12.8661C9.35054 12.6317 9.66848 12.5 10 12.5C10.3315 12.5 10.6495 12.6317 10.8839 12.8661C11.1183 13.1005 11.25 13.4185 11.25 13.75C11.25 14.0815 11.1183 14.3995 10.8839 14.6339C10.6495 14.8683 10.3315 15 10 15C9.66848 15 9.35054 14.8683 9.11612 14.6339C8.8817 14.3995 8.75 14.0815 8.75 13.75Z" fill="black"/>
</g>
<defs>
<clipPath id="clip0_160_5010">
<rect width="20" height="20" fill="white"/>
</clipPath>
</defs>
</svg>
