<svg width="24" height="24" viewBox="0 0 24 24" fill="none" xmlns="http://www.w3.org/2000/svg">
<g clip-path="url(#clip0_3_942)">
<path fill-rule="evenodd" clip-rule="evenodd" d="M21 10.8328V19.5C21 20.3284 20.3284 21 19.5 21H15.75C14.9216 21 14.25 20.3284 14.25 19.5V15.75C14.25 15.3358 13.9142 15 13.5 15H10.5C10.0858 15 9.75 15.3358 9.75 15.75V19.5C9.75 20.3284 9.07843 21 8.25 21H4.5C3.67157 21 3 20.3284 3 19.5V10.8328C2.99994 10.4131 3.17573 10.0125 3.48469 9.72844L10.9847 2.65219L10.995 2.64188C11.5672 2.1215 12.4412 2.1215 13.0134 2.64188C13.0166 2.64554 13.0201 2.64899 13.0238 2.65219L20.5238 9.72844C20.8296 10.014 21.0022 10.4144 21 10.8328Z" fill="#121417"/>
</g>
<defs>
<clipPath id="clip0_3_942">
<rect width="24" height="24" fill="white"/>
</clipPath>
</defs>
</svg>
