<svg width="200" height="216" viewBox="0 0 200 216" fill="none" xmlns="http://www.w3.org/2000/svg">
<path d="M105.922 0.215698V17.2233L166.418 51.6691L181.273 43.0577L105.922 0.215698Z" fill="#369EFF"/>
<path d="M96.45 99.8932L7.32148 49.7314L0.432312 55.1136V67.8155L88.2691 116.04L96.45 111.088V99.8932Z" fill="#369EFF"/>
<path d="M200 149.409L193.326 145.319L130.032 181.917V192.251L138.428 196.557L200 162.326V149.409Z" fill="#369EFF"/>
<path d="M199.786 54.252L192.897 49.5157L103.553 100.969V111.303L111.949 115.609L199.786 67.3845V54.252Z" fill="#369EFF"/>
<path d="M106.136 215.932V117.977L126.158 129.602V202.154L106.136 215.932Z" fill="#369EFF"/>
<path d="M61.1413 146.394L0 111.949V128.956L56.405 160.819L61.1413 156.728V146.394Z" fill="#369EFF"/>
<path d="M93.0031 118.838L73.412 128.525V203.66L93.0031 214.855V118.838Z" fill="#369EFF"/>
<path d="M94.0793 0L18.7291 43.0573L32.938 51.2381L94.0793 17.8688V0Z" fill="#369EFF"/>
</svg>
