<svg width="24" height="26" viewBox="0 0 24 26" fill="none" xmlns="http://www.w3.org/2000/svg">
<path d="M12.7107 0.0699463V2.11086L19.9701 6.24436L21.7527 5.21098L12.7107 0.0699463Z" fill="#369EFF"/>
<path d="M11.5739 12.0312L0.878457 6.01184L0.0517578 6.6577V8.18193L10.5922 13.9688L11.5739 13.3746V12.0312Z" fill="#369EFF"/>
<path d="M23.9999 17.9732L23.1991 17.4823L15.6038 21.8741V23.1142L16.6113 23.6309L23.9999 19.5232V17.9732Z" fill="#369EFF"/>
<path d="M23.9742 6.55432L23.1475 5.98596L12.4263 12.1604V13.4004L13.4338 13.9171L23.9742 8.13021V6.55432Z" fill="#369EFF"/>
<path d="M12.7363 25.9559V14.2013L15.1389 15.5963V24.3025L12.7363 25.9559Z" fill="#369EFF"/>
<path d="M7.33696 17.6114L0 13.4779V15.5188L6.7686 19.3423L7.33696 18.8515V17.6114Z" fill="#369EFF"/>
<path d="M11.1603 14.3046L8.80933 15.4672V24.4834L11.1603 25.8268V14.3046Z" fill="#369EFF"/>
<path d="M11.2896 0.0440674L2.24756 5.21094L3.95263 6.19264L11.2896 2.18832V0.0440674Z" fill="#369EFF"/>
</svg>
