<svg width="20" height="18" viewBox="0 0 20 18" fill="none" xmlns="http://www.w3.org/2000/svg">
<path d="M0 1.42857C0 0.638393 0.638393 0 1.42857 0H18.5714C19.3616 0 20 0.638393 20 1.42857C20 2.21875 19.3616 2.85714 18.5714 2.85714H1.42857C0.638393 2.85714 0 2.21875 0 1.42857ZM0 8.57143C0 7.78125 0.638393 7.14286 1.42857 7.14286H18.5714C19.3616 7.14286 20 7.78125 20 8.57143C20 9.36161 19.3616 10 18.5714 10H1.42857C0.638393 10 0 9.36161 0 8.57143ZM20 15.7143C20 16.5045 19.3616 17.1429 18.5714 17.1429H1.42857C0.638393 17.1429 0 16.5045 0 15.7143C0 14.9241 0.638393 14.2857 1.42857 14.2857H18.5714C19.3616 14.2857 20 14.9241 20 15.7143Z" fill="#121417"/>
</svg>
