
<svg width="100" height="100" viewBox="0 0 13 12" fill="#F0F2F5" xmlns="http://www.w3.org/2000/svg">
<path d="M7.42308 0.923077C7.42308 0.4125 7.01058 0 6.5 0C5.98942 0 5.57692 0.4125 5.57692 0.923077V5.07692H1.42308C0.9125 5.07692 0.5 5.48942 0.5 6C0.5 6.51058 0.9125 6.92308 1.42308 6.92308H5.57692V11.0769C5.57692 11.5875 5.98942 12 6.5 12C7.01058 12 7.42308 11.5875 7.42308 11.0769V6.92308H11.5769C12.0875 6.92308 12.5 6.51058 12.5 6C12.5 5.48942 12.0875 5.07692 11.5769 5.07692H7.42308V0.923077Z" fill="#F0F2F5 "/>
</svg>
