<svg width="16" height="15" viewBox="0 0 16 15" fill="none" xmlns="http://www.w3.org/2000/svg">
<path d="M0 12.5C0 13.0531 0.446875 13.5 1 13.5H2.70938C3.09375 14.3844 3.975 15 5 15C6.025 15 6.90625 14.3844 7.29063 13.5H15C15.5531 13.5 16 13.0531 16 12.5C16 11.9469 15.5531 11.5 15 11.5H7.29063C6.90625 10.6156 6.025 10 5 10C3.975 10 3.09375 10.6156 2.70938 11.5H1C0.446875 11.5 0 11.9469 0 12.5ZM4 12.5C4 12.2348 4.10536 11.9804 4.29289 11.7929C4.48043 11.6054 4.73478 11.5 5 11.5C5.26522 11.5 5.51957 11.6054 5.70711 11.7929C5.89464 11.9804 6 12.2348 6 12.5C6 12.7652 5.89464 13.0196 5.70711 13.2071C5.51957 13.3946 5.26522 13.5 5 13.5C4.73478 13.5 4.48043 13.3946 4.29289 13.2071C4.10536 13.0196 4 12.7652 4 12.5ZM10 7.5C10 7.23478 10.1054 6.98043 10.2929 6.79289C10.4804 6.60536 10.7348 6.5 11 6.5C11.2652 6.5 11.5196 6.60536 11.7071 6.79289C11.8946 6.98043 12 7.23478 12 7.5C12 7.76522 11.8946 8.01957 11.7071 8.20711C11.5196 8.39464 11.2652 8.5 11 8.5C10.7348 8.5 10.4804 8.39464 10.2929 8.20711C10.1054 8.01957 10 7.76522 10 7.5ZM11 5C9.975 5 9.09375 5.61562 8.70938 6.5H1C0.446875 6.5 0 6.94688 0 7.5C0 8.05313 0.446875 8.5 1 8.5H8.70938C9.09375 9.38438 9.975 10 11 10C12.025 10 12.9062 9.38438 13.2906 8.5H15C15.5531 8.5 16 8.05313 16 7.5C16 6.94688 15.5531 6.5 15 6.5H13.2906C12.9062 5.61562 12.025 5 11 5ZM6 3.5C5.73478 3.5 5.48043 3.39464 5.29289 3.20711C5.10536 3.01957 5 2.76522 5 2.5C5 2.23478 5.10536 1.98043 5.29289 1.79289C5.48043 1.60536 5.73478 1.5 6 1.5C6.26522 1.5 6.51957 1.60536 6.70711 1.79289C6.89464 1.98043 7 2.23478 7 2.5C7 2.76522 6.89464 3.01957 6.70711 3.20711C6.51957 3.39464 6.26522 3.5 6 3.5ZM8.29063 1.5C7.90625 0.615625 7.025 0 6 0C4.975 0 4.09375 0.615625 3.70938 1.5H1C0.446875 1.5 0 1.94687 0 2.5C0 3.05313 0.446875 3.5 1 3.5H3.70938C4.09375 4.38438 4.975 5 6 5C7.025 5 7.90625 4.38438 8.29063 3.5H15C15.5531 3.5 16 3.05313 16 2.5C16 1.94687 15.5531 1.5 15 1.5H8.29063Z" fill="black"/>
</svg>
