<svg width="14" height="16" viewBox="0 0 14 16" fill="none" xmlns="http://www.w3.org/2000/svg">
<path d="M11 7C12.6562 7 14 5.65625 14 4C14 2.34375 12.6562 1 11 1C9.34375 1 8 2.34375 8 4C8 4.125 8.00625 4.25 8.02188 4.37187L5.08125 5.84062C4.54375 5.31875 3.80938 5 3 5C1.34375 5 0 6.34375 0 8C0 9.65625 1.34375 11 3 11C3.80938 11 4.54375 10.6813 5.08125 10.1594L8.02188 11.6281C8.00625 11.75 8 11.8719 8 12C8 13.6562 9.34375 15 11 15C12.6562 15 14 13.6562 14 12C14 10.3438 12.6562 9 11 9C10.1906 9 9.45625 9.31875 8.91875 9.84062L5.97813 8.37187C5.99375 8.25 6 8.12813 6 8C6 7.87187 5.99375 7.75 5.97813 7.62813L8.91875 6.15938C9.45625 6.68125 10.1906 7 11 7Z" fill="black"/>
</svg>
